<svg version="1.1" id="Layer_1" xmlns="http://www.w3.org/2000/svg" xmlns:xlink="http://www.w3.org/1999/xlink" x="0px" y="0px"
	 width="100%" viewBox="0 0 216 77" enable-background="new 0 0 216 77" xml:space="preserve">
<path fill="#000000" opacity="1.000000" stroke="none" 
	d="
M57.000000,1.000000 
	C110.284157,1.000000 163.568314,1.000000 216.926239,1.000000 
	C216.926239,26.593643 216.926239,52.187542 216.926239,77.890724 
	C145.000107,77.890724 73.000084,77.890724 1.000000,77.890724 
	C1.000000,70.924652 1.000000,63.931107 1.429932,56.442932 
	C3.755947,55.948299 5.652029,55.948299 7.542693,55.948299 
	C8.078838,57.837868 8.507672,59.349236 8.564518,60.955029 
	C7.432888,63.781509 6.857327,66.582214 5.870100,69.229385 
	C4.419566,73.118881 6.335137,73.917458 9.621109,73.906548 
	C19.218451,73.874672 28.817108,73.987679 38.413033,73.867264 
	C45.027748,73.784256 49.646183,69.672493 51.319885,62.753994 
	C51.990395,58.989429 52.377472,55.493660 52.844555,51.750191 
	C52.966862,51.334194 53.009167,51.165897 53.346878,50.733067 
	C53.712753,48.305546 53.783226,46.142555 53.911224,43.562756 
	C53.940449,39.100319 56.804413,34.529278 52.474220,31.231453 
	C48.519428,28.219532 44.200302,25.685993 39.860001,22.655457 
	C37.484303,21.214329 35.290348,20.059374 33.008244,18.672329 
	C32.725132,18.147263 32.455189,17.965899 32.026093,17.676876 
	C31.764471,17.169567 31.507479,17.008425 31.101744,16.653690 
	C31.035355,15.896816 31.038164,15.460433 31.016750,15.013380 
	C30.992525,15.002710 31.009005,15.053023 31.261076,14.975258 
	C31.683628,14.603502 31.854111,14.309510 32.011208,14.008020 
	C31.997822,14.000522 32.017914,14.024873 32.485519,14.013796 
	C38.378723,13.997838 43.804371,14.005044 49.229912,13.984735 
	C54.859791,13.963662 56.865692,12.010554 56.992725,6.425501 
	C57.033840,4.617880 56.999714,2.808549 57.000000,1.000000 
M180.793839,57.545387 
	C180.608658,57.248825 180.341568,57.089748 179.631561,56.427700 
	C177.403778,56.263947 175.176010,56.100193 172.492004,56.092819 
	C172.198929,56.274712 172.025696,56.536057 171.274094,56.463554 
	C171.051941,53.876648 170.829773,51.289738 170.591873,48.519474 
	C167.514130,48.135582 164.408264,47.045250 165.054123,52.899807 
	C165.105072,55.298843 165.156021,57.697884 165.104553,60.811153 
	C165.130707,61.530827 165.156845,62.250504 165.031677,63.878223 
	C165.039948,66.210327 164.735275,68.605225 165.185440,70.848656 
	C165.418793,72.011604 166.988525,72.906403 167.954529,73.922333 
	C168.956085,72.934669 170.687088,72.034805 170.818573,70.942406 
	C171.173157,67.996887 170.846039,64.969322 170.914581,61.511330 
	C170.914581,61.511330 171.030045,61.045853 171.494751,60.871719 
	C171.794281,60.677444 171.959915,60.402512 172.050003,60.052837 
	C172.050003,60.052837 172.041840,59.994770 172.783630,60.004330 
	C173.522385,59.949844 174.261124,59.895355 175.576706,60.102009 
	C176.121414,60.733356 176.666122,61.364704 177.074341,62.907845 
	C177.052170,65.047623 177.133514,67.194550 176.986481,69.325714 
	C176.670212,73.910072 178.781876,74.642563 183.318619,72.964218 
	C182.875137,68.623955 182.435013,64.316505 181.873611,59.493690 
	C181.814758,59.327305 181.755920,59.160923 181.683823,58.557140 
	C181.534653,58.275372 181.301605,58.117126 180.991669,58.013405 
	C180.991669,58.013405 180.922424,58.009327 180.793839,57.545387 
M92.783127,56.590008 
	C92.584076,56.291561 92.312630,56.193676 91.510048,56.128155 
	C91.510048,56.128155 91.037399,56.004299 90.515480,55.379765 
	C82.056458,54.370823 79.970039,55.490791 80.809555,60.698990 
	C83.206436,60.414665 85.610886,60.129440 88.559097,60.282227 
	C87.027878,61.174564 85.496658,62.066906 83.230339,63.005730 
	C81.368042,64.692291 79.505737,66.378853 77.883377,67.329346 
	C77.212540,64.250092 77.253059,60.701340 72.999084,60.000206 
	C72.999084,60.000206 73.033478,59.978672 72.848885,59.537254 
	C72.644882,59.233089 72.364441,59.122124 71.205887,59.067421 
	C68.488319,58.694839 65.253014,58.850014 66.359184,54.195580 
	C69.513481,54.195580 72.540344,54.195580 76.108727,54.195580 
	C75.694023,52.514366 75.525757,50.055382 74.996475,49.975052 
	C71.579628,49.456478 67.852699,48.662117 64.698837,49.579193 
	C62.734573,50.150360 60.192989,53.744030 60.435352,55.662216 
	C60.757729,58.213696 63.273895,60.727222 65.349777,62.738819 
	C66.886475,64.227936 69.224251,64.890388 71.009575,66.690384 
	C67.979370,71.691956 64.138206,67.751663 60.676533,67.442657 
	C59.872055,72.005302 60.272423,72.983734 63.168053,73.800385 
	C69.560341,75.603188 74.271263,73.718933 78.174377,68.536507 
	C79.129005,70.033501 80.083633,71.530495 81.570343,73.585396 
	C85.892502,73.585396 90.214661,73.585396 95.338127,73.585396 
	C94.901390,68.302132 94.514771,63.625023 93.991096,58.360634 
	C93.648804,57.926785 93.306519,57.492939 92.983818,57.002472 
	C92.983818,57.002472 92.929001,57.026630 92.783127,56.590008 
M115.394547,72.673706 
	C115.394547,72.673706 115.636597,72.733727 116.123619,73.258926 
	C119.206039,73.863914 122.959007,75.923225 123.688942,70.370430 
	C126.064514,75.260666 129.967331,74.295700 134.492401,73.607224 
	C136.085052,73.607224 137.677704,73.607224 139.929367,73.607224 
	C139.929367,69.551689 139.969025,65.808754 139.919144,62.067005 
	C139.859268,57.575603 137.836273,54.980343 132.212814,55.066193 
	C125.408203,55.228111 124.376152,56.183945 125.807259,60.065422 
	C128.745117,60.439533 131.326874,60.768295 133.929489,61.087475 
	C133.929489,61.087475 133.898941,61.106644 133.463211,61.712009 
	C128.354034,62.058109 124.054939,63.576252 122.196487,69.118332 
	C121.910439,69.077141 121.635277,69.115059 120.803246,69.081825 
	C120.215897,69.020927 119.628555,68.960037 118.980507,68.013321 
	C119.532280,64.872742 116.915588,60.488068 122.440643,59.247536 
	C122.725121,59.183666 122.889175,58.074585 122.911415,57.445137 
	C122.984108,55.387867 117.173721,50.614086 115.118256,51.088844 
	C114.421684,51.249729 113.372467,51.722610 113.249428,52.236198 
	C112.288414,56.247562 110.051613,56.065392 106.585556,55.253937 
	C102.745697,54.354973 98.361580,54.357552 96.524147,59.157425 
	C94.993973,63.154694 97.801422,64.789131 101.283173,66.613541 
	C102.307930,67.076553 103.332680,67.539558 104.357437,68.002571 
	C104.268051,68.270683 104.178673,68.538803 104.089294,68.806923 
	C101.571480,68.806923 99.053665,68.806923 94.837296,68.806923 
	C96.803581,71.087166 97.983803,73.601242 99.157204,73.598068 
	C102.446037,73.589157 106.800148,76.124268 108.877731,70.488892 
	C108.877731,70.488892 109.003983,70.012726 109.469017,69.829689 
	C109.760635,69.634628 109.947174,69.366486 110.543533,68.647835 
	C109.356728,66.857002 108.169930,65.066177 106.512589,63.083458 
	C106.347626,63.044949 106.182671,63.006443 105.591812,62.454865 
	C104.721878,62.388161 103.851944,62.321453 102.410423,61.758312 
	C103.554359,61.170601 104.666580,60.175560 105.849106,60.083488 
	C108.032372,59.913502 110.256866,60.273067 112.078079,60.387707 
	C113.067337,64.270432 114.043182,68.100525 115.081635,72.229103 
	C115.081635,72.229103 115.298454,72.443573 115.394547,72.673706 
M209.002197,61.006798 
	C209.002197,61.006798 208.985443,60.972916 209.820038,60.971706 
	C214.812912,61.332321 214.432983,58.594879 213.209549,54.728588 
	C211.616425,55.278744 210.307877,55.730629 208.527863,56.041557 
	C208.527863,56.041557 208.046799,55.937965 207.850800,55.508232 
	C207.645508,55.215050 207.367935,55.105999 206.159988,55.036861 
	C203.370438,54.594662 201.767654,55.316391 201.938675,58.612526 
	C202.152054,62.725052 201.826523,66.872597 202.183350,70.965820 
	C202.276566,72.035210 204.037537,72.959213 205.032547,73.949989 
	C206.006088,72.942162 207.656174,72.033463 207.821213,70.907158 
	C208.247696,67.996849 208.018585,64.990463 208.043427,61.973419 
	C208.043427,61.973419 207.996735,61.991394 208.461868,61.816967 
	C208.756943,61.619255 208.925491,61.344055 209.002197,61.006798 
M141.991486,65.008781 
	C141.991486,65.008781 141.949875,65.037315 142.044937,65.756149 
	C144.744934,72.477989 150.171310,75.183487 157.613068,73.824409 
	C164.453598,72.575134 162.884491,67.395203 162.950592,62.951229 
	C162.967255,61.830982 162.762634,60.707451 162.635666,59.323280 
	C159.427948,59.323280 156.516190,59.323280 151.803238,59.323280 
	C153.531906,61.888298 154.653778,63.438976 155.644531,65.069344 
	C156.169418,65.933083 156.759399,66.944534 156.730240,67.870758 
	C156.717575,68.273109 155.237686,68.904778 154.393875,68.958855 
	C150.237122,69.225204 148.197296,66.729240 147.811096,60.516628 
	C147.785507,60.343819 147.759933,60.171013 147.900711,59.263954 
	C147.954681,58.511623 148.008667,57.759296 148.632568,56.705772 
	C149.767029,55.723064 150.901505,54.740356 152.882431,53.893215 
	C154.594406,53.838596 156.306366,53.783981 158.592102,54.015293 
	C159.558914,54.361115 160.525726,54.706936 163.003159,55.593094 
	C161.611252,52.596691 161.174042,49.752541 159.947205,49.356892 
	C155.562851,47.942951 150.858002,46.979298 146.299042,51.043129 
	C145.538513,52.028446 144.777969,53.013763 143.498688,54.219856 
	C143.085373,54.812206 142.672073,55.404552 142.093842,56.626831 
	C142.061829,57.059216 142.029831,57.491604 141.486679,58.251282 
	C141.381332,58.828320 141.275986,59.405357 141.032547,60.727348 
	C141.078766,61.480442 141.124969,62.233532 141.095291,63.495049 
	C141.123627,63.664043 141.151947,63.833035 141.184708,64.499695 
	C141.355881,64.815865 141.619156,65.001244 141.991486,65.008781 
M185.601395,57.113407 
	C185.489777,58.293934 185.378159,59.474457 185.264526,60.676342 
	C188.442108,60.462692 190.997116,60.290901 193.552109,60.119110 
	C193.607712,60.591534 193.663315,61.063957 193.718918,61.536385 
	C191.567139,62.073284 188.966766,62.046509 187.387787,63.303146 
	C185.757782,64.600388 184.264511,67.168564 184.316971,69.137955 
	C184.360062,70.755409 186.553360,73.371956 188.150589,73.677109 
	C191.747223,74.364250 195.565231,73.892738 199.934845,73.892738 
	C199.934845,70.550339 199.532532,67.699677 200.011536,65.005722 
	C201.359192,57.426334 196.451019,52.049774 185.601395,57.113407 
z"/>
<path fill="#000000" opacity="1.000000" stroke="none" 
	d="
M1.000000,52.000000 
	C1.000000,35.099800 1.000000,18.199602 1.000000,1.000000 
	C8.684956,1.000000 16.373785,1.000000 24.874207,1.211956 
	C24.127220,2.937590 22.568644,4.451268 20.982830,5.962685 
	C20.955591,5.960425 20.967342,6.013810 20.648340,6.157155 
	C17.503000,10.774100 14.497725,15.206113 16.974121,21.265768 
	C19.403635,24.408178 21.794527,27.187977 24.285437,30.275442 
	C25.586052,31.045771 26.786650,31.508434 27.981995,32.001064 
	C27.976740,32.031033 28.037355,32.025677 28.100796,32.247280 
	C28.164234,32.468884 28.509005,32.775387 28.509005,32.775387 
	C28.509005,32.775387 28.969740,32.750645 29.223927,32.826397 
	C29.651058,32.938976 29.824005,32.975800 30.147707,33.323597 
	C34.187782,35.753132 38.077106,37.871693 41.962006,40.016674 
	C41.957588,40.043098 42.010677,40.035843 42.087849,40.262486 
	C42.349461,40.775608 42.609917,40.945713 42.987991,41.375340 
	C43.101395,42.503376 43.173199,43.255516 43.139114,44.343281 
	C40.693615,44.105244 38.354000,43.531582 35.865807,42.659332 
	C34.158772,41.559212 32.600319,40.757675 30.880993,39.659729 
	C29.170719,38.793201 27.086372,37.283501 26.161396,37.810127 
	C21.279926,40.589359 16.690660,43.881828 11.646595,47.049324 
	C7.862106,48.734921 4.431054,50.367462 1.000000,52.000000 
z"/>
<path fill="#1080CE" opacity="1.000000" stroke="none" 
	d="
M27.000000,1.000000 
	C36.354229,1.000000 45.708458,1.000000 55.526558,1.424032 
	C55.793648,10.521420 54.323395,11.983692 45.733692,12.026998 
	C42.743416,12.042073 39.729645,11.817852 36.771969,12.131145 
	C35.138744,12.304145 33.599514,13.364524 32.017914,14.024873 
	C32.017914,14.024873 31.997822,14.000522 31.801033,14.137197 
	C31.344257,14.486547 31.145845,14.746264 31.009005,15.053023 
	C31.009005,15.053023 30.992525,15.002710 30.757290,14.996062 
	C30.348963,14.985739 30.175867,14.982063 29.687355,14.923446 
	C27.578260,15.262103 25.784584,15.655703 23.907063,15.782301 
	C24.143656,14.157386 24.464096,12.799473 24.582619,12.297220 
	C23.161001,9.826425 22.064173,7.920117 20.967342,6.013810 
	C20.967342,6.013810 20.955591,5.960425 21.343199,5.939343 
	C23.628078,5.092173 25.568089,4.343358 27.370817,3.346323 
	C27.607403,3.215476 27.140873,1.813331 27.000000,1.000000 
z"/>
<path fill="#15519C" opacity="1.000000" stroke="none" 
	d="
M1.000000,52.399998 
	C4.431054,50.367462 7.862106,48.734921 11.755152,47.135910 
	C12.217145,47.169434 12.434537,47.342251 12.545735,47.601402 
	C14.999167,49.122574 17.341402,50.384594 19.869457,51.746738 
	C20.508282,49.830368 20.891777,48.679947 21.535408,46.749161 
	C23.000006,48.131989 24.000664,49.076782 25.000393,50.349186 
	C25.001293,51.113834 25.003122,51.550873 24.901138,52.223549 
	C24.516811,52.647430 24.236298,52.835678 23.644337,53.068703 
	C22.563698,53.735580 21.794508,54.357677 21.024723,55.004204 
	C21.024126,55.028633 20.975342,55.019688 20.617918,55.060295 
	C17.854221,57.033703 15.221568,58.750965 13.112219,60.966465 
	C11.377599,62.788372 10.283628,63.129719 8.936506,60.860600 
	C8.507672,59.349236 8.078838,57.837868 7.542693,55.948299 
	C5.652029,55.948299 3.755947,55.948299 1.429932,55.974152 
	C1.000000,54.933331 1.000000,53.866661 1.000000,52.399998 
z"/>
<path fill="#2273AF" opacity="1.000000" stroke="none" 
	d="
M32.485519,14.013796 
	C33.599514,13.364524 35.138744,12.304145 36.771969,12.131145 
	C39.729645,11.817852 42.743416,12.042073 45.733692,12.026998 
	C54.323395,11.983692 55.793648,10.521420 55.995216,1.424032 
	C56.000000,1.000000 56.500000,1.000000 56.750000,1.000000 
	C56.999714,2.808549 57.033840,4.617880 56.992725,6.425501 
	C56.865692,12.010554 54.859791,13.963662 49.229912,13.984735 
	C43.804371,14.005044 38.378723,13.997838 32.485519,14.013796 
z"/>
<path fill="#1876C0" opacity="1.000000" stroke="none" 
	d="
M26.666668,1.000000 
	C27.140873,1.813331 27.607403,3.215476 27.370817,3.346323 
	C25.568089,4.343358 23.628078,5.092173 21.370438,5.941604 
	C22.568644,4.451268 24.127220,2.937590 25.342897,1.211956 
	C25.444445,1.000000 25.888889,1.000000 26.666668,1.000000 
z"/>
<path fill="#144996" opacity="1.000000" stroke="none" 
	d="
M8.564518,60.955029 
	C10.283628,63.129719 11.377599,62.788372 13.112219,60.966465 
	C15.221568,58.750965 17.854221,57.033703 20.452621,55.372509 
	C15.921163,57.670887 17.857622,62.674580 15.996469,65.973511 
	C15.973166,65.955795 15.992343,66.019974 16.124834,66.346397 
	C19.293535,66.793907 22.330683,67.036629 25.365784,67.013298 
	C34.503738,66.943031 34.503429,66.902641 37.089935,59.292969 
	C38.289677,61.332066 39.305622,64.428482 40.401299,64.456963 
	C43.827778,64.546013 47.284355,63.476814 50.806053,62.898079 
	C50.882839,62.939678 51.036453,63.022789 51.036453,63.022789 
	C49.646183,69.672493 45.027748,73.784256 38.413033,73.867264 
	C28.817108,73.987679 19.218451,73.874672 9.621109,73.906548 
	C6.335137,73.917458 4.419566,73.118881 5.870100,69.229385 
	C6.857327,66.582214 7.432888,63.781509 8.564518,60.955029 
z"/>
<path fill="#15579F" opacity="1.000000" stroke="none" 
	d="
M106.017723,62.967937 
	C106.182671,63.006443 106.347626,63.044949 106.749146,63.560474 
	C106.957207,65.058075 106.928726,66.078659 106.624374,66.949478 
	C104.535545,66.547668 102.722595,66.295624 100.909645,66.043571 
	C97.801422,64.789131 94.993973,63.154694 96.524147,59.157425 
	C98.361580,54.357552 102.745697,54.354973 106.585556,55.253937 
	C110.051613,56.065392 112.288414,56.247562 113.249428,52.236198 
	C113.372467,51.722610 114.421684,51.249729 115.118256,51.088844 
	C117.173721,50.614086 122.984108,55.387867 122.911415,57.445137 
	C122.889175,58.074585 122.725121,59.183666 122.440643,59.247536 
	C116.915588,60.488068 119.532280,64.872742 119.000519,68.802650 
	C119.007889,70.053619 118.995262,70.515251 118.643143,71.138687 
	C117.414627,71.778229 116.525612,72.255981 115.636597,72.733734 
	C115.636597,72.733727 115.394547,72.673706 115.402657,72.465164 
	C115.410973,72.006668 115.280396,71.898003 115.019035,71.930618 
	C114.043182,68.100525 113.067337,64.270432 112.078079,60.387707 
	C110.256866,60.273067 108.032372,59.913502 105.849106,60.083488 
	C104.666580,60.175560 103.554359,61.170601 102.834610,62.194958 
	C104.178444,62.743713 105.098083,62.855824 106.017723,62.967937 
z"/>
<path fill="#144C92" opacity="1.000000" stroke="none" 
	d="
M185.880035,56.819313 
	C196.451019,52.049774 201.359192,57.426334 200.011536,65.005722 
	C199.532532,67.699677 199.934845,70.550339 199.934845,73.892738 
	C195.565231,73.892738 191.747223,74.364250 188.150589,73.677109 
	C186.553360,73.371956 184.360062,70.755409 184.316971,69.137955 
	C184.264511,67.168564 185.757782,64.600388 187.387787,63.303146 
	C188.966766,62.046509 191.567139,62.073284 193.718918,61.536385 
	C193.663315,61.063957 193.607712,60.591534 193.552109,60.119110 
	C190.997116,60.290901 188.442108,60.462692 185.264526,60.676342 
	C185.378159,59.474457 185.489777,58.293934 185.880035,56.819313 
z"/>
<path fill="#1454A3" opacity="1.000000" stroke="none" 
	d="
M36.014385,42.957924 
	C38.354000,43.531582 40.693615,44.105244 43.448441,44.450523 
	C46.559639,45.810692 49.255623,47.399242 52.122910,49.219864 
	C52.546631,49.967155 52.799053,50.482380 53.051476,50.997601 
	C53.009167,51.165897 52.966862,51.334194 52.580761,51.905479 
	C51.492653,53.547718 50.748344,54.786968 49.673462,56.094955 
	C48.032742,57.440434 46.722603,58.717175 46.220104,59.206863 
	C42.675327,58.756058 39.829056,58.394085 36.974388,58.032814 
	C36.965992,58.033508 36.950035,58.026672 36.910728,57.685860 
	C35.913033,55.588394 34.954639,53.831741 34.076050,51.723171 
	C34.447258,48.908684 34.738670,46.446114 35.202084,43.820312 
	C35.600872,43.436256 35.814304,43.203205 36.014385,42.957924 
z"/>
<path fill="#145197" opacity="1.000000" stroke="none" 
	d="
M147.746460,61.036697 
	C148.197296,66.729240 150.237122,69.225204 154.393875,68.958855 
	C155.237686,68.904778 156.717575,68.273109 156.730240,67.870758 
	C156.759399,66.944534 156.169418,65.933083 155.644531,65.069344 
	C154.653778,63.438976 153.531906,61.888298 151.803238,59.323280 
	C156.516190,59.323280 159.427948,59.323280 162.635666,59.323280 
	C162.762634,60.707451 162.967255,61.830982 162.950592,62.951229 
	C162.884491,67.395203 164.453598,72.575134 157.613068,73.824409 
	C150.171310,75.183487 144.744934,72.477989 142.313538,65.438477 
	C144.303574,63.759434 146.025024,62.398064 147.746460,61.036697 
z"/>
<path fill="#165AA1" opacity="1.000000" stroke="none" 
	d="
M71.205154,65.921112 
	C69.224251,64.890388 66.886475,64.227936 65.349777,62.738819 
	C63.273895,60.727222 60.757729,58.213696 60.435352,55.662216 
	C60.192989,53.744030 62.734573,50.150360 64.698837,49.579193 
	C67.852699,48.662117 71.579628,49.456478 74.996475,49.975052 
	C75.525757,50.055382 75.694023,52.514366 76.108727,54.195580 
	C72.540344,54.195580 69.513481,54.195580 66.359184,54.195580 
	C65.253014,58.850014 68.488319,58.694839 71.759140,59.288841 
	C72.524353,59.710133 72.764709,59.866268 73.033478,59.978672 
	C73.033478,59.978672 72.999084,60.000206 73.107712,60.313232 
	C74.946915,63.323265 76.924454,66.470177 74.297981,69.134918 
	C72.466927,70.992638 69.254860,71.489166 66.659683,72.593742 
	C68.039261,70.736061 69.907707,70.087616 71.433823,68.971207 
	C71.868652,68.653099 71.308853,66.975365 71.205154,65.921112 
z"/>
<path fill="#165CA8" opacity="1.000000" stroke="none" 
	d="
M51.951607,48.987789 
	C49.255623,47.399242 46.559639,45.810692 43.554329,44.114899 
	C43.173199,43.255516 43.101395,42.503376 42.847816,41.200851 
	C42.466507,40.425411 42.248055,40.220535 42.010677,40.035843 
	C42.010677,40.035843 41.957588,40.043098 41.843414,39.726578 
	C40.494537,38.288715 39.259842,37.167366 38.257584,35.825386 
	C41.647301,31.563309 44.171970,35.421402 47.876591,36.983681 
	C48.188232,34.704994 49.197990,32.503025 48.492538,31.355495 
	C47.194103,29.243380 44.887100,27.751293 42.729115,25.854519 
	C41.547314,24.916138 40.636829,24.124041 39.805344,23.234482 
	C39.884338,23.137022 40.041744,22.941626 40.041744,22.941626 
	C44.200302,25.685993 48.519428,28.219532 52.474220,31.231453 
	C56.804413,34.529278 53.940449,39.100319 53.634628,43.765106 
	C52.850872,45.918774 52.401237,47.453281 51.951607,48.987789 
z"/>
<path fill="#104D96" opacity="1.000000" stroke="none" 
	d="
M94.128143,58.947918 
	C94.514771,63.625023 94.901390,68.302132 95.338127,73.585396 
	C90.214661,73.585396 85.892502,73.585396 81.525665,73.096237 
	C82.309128,69.391129 83.137283,66.175186 83.965439,62.959248 
	C85.496658,62.066906 87.027878,61.174564 88.283546,59.850056 
	C88.007996,59.417885 88.001175,58.991547 88.320633,59.149506 
	C89.831474,61.963989 91.022850,64.620514 92.214226,67.277039 
	C92.503143,67.261116 92.792053,67.245186 93.080963,67.229256 
	C93.080963,64.480606 93.080963,61.731960 93.342804,58.975777 
	C93.779144,58.961468 93.953644,58.954693 94.128143,58.947918 
z"/>
<path fill="#125095" opacity="1.000000" stroke="none" 
	d="
M122.605095,69.216782 
	C124.054939,63.576252 128.354034,62.058109 133.909363,61.528900 
	C133.302597,63.151966 132.249710,64.958145 131.253799,66.666550 
	C132.925980,67.493126 135.227448,68.630768 137.733093,69.869339 
	C137.882050,67.626450 138.057434,64.985748 138.232819,62.345051 
	C139.748901,71.511551 139.430038,72.242378 133.944550,73.045456 
	C129.967331,74.295700 126.064514,75.260666 123.260796,70.004585 
	C122.832649,69.638741 122.605095,69.216782 122.605095,69.216782 
z"/>
<path fill="#165DA7" opacity="1.000000" stroke="none" 
	d="
M147.778778,60.776661 
	C146.025024,62.398064 144.303574,63.759434 142.266006,65.079056 
	C141.949875,65.037315 141.991486,65.008781 141.872437,64.841049 
	C141.581955,64.432838 141.390915,64.209068 141.180283,64.002029 
	C141.151947,63.833035 141.123627,63.664043 141.318939,63.069939 
	C141.418579,61.757351 141.294601,60.869869 141.170624,59.982391 
	C141.275986,59.405357 141.381332,58.828320 141.941254,58.021149 
	C142.350143,57.192974 142.304459,56.594940 142.258774,55.996902 
	C142.672073,55.404552 143.085373,54.812206 144.066833,54.015892 
	C145.416977,52.860046 146.198975,51.908165 146.980972,50.956280 
	C150.858002,46.979298 155.562851,47.942951 159.947205,49.356892 
	C161.174042,49.752541 161.611252,52.596691 163.003159,55.593094 
	C160.525726,54.706936 159.558914,54.361115 158.137451,53.635075 
	C155.800537,53.422451 153.918243,53.590046 152.035965,53.757645 
	C150.901505,54.740356 149.767029,55.723064 148.100266,56.965778 
	C147.623428,58.149925 147.678879,59.074066 147.734344,59.998207 
	C147.759933,60.171013 147.785507,60.343819 147.778778,60.776661 
z"/>
<path fill="#145BA4" opacity="1.000000" stroke="none" 
	d="
M165.182999,62.970177 
	C165.156845,62.250504 165.130707,61.530827 165.312042,60.576073 
	C165.666702,60.405445 165.809402,60.504688 165.962326,60.524319 
	C166.107681,60.542984 166.397247,60.460171 166.396255,60.453011 
	C166.011642,57.638622 165.607513,54.826897 165.203735,52.015125 
	C164.408264,47.045250 167.514130,48.135582 170.591873,48.519474 
	C170.829773,51.289738 171.051941,53.876648 171.631531,57.060204 
	C172.006592,58.436157 172.024216,59.215462 172.041840,59.994770 
	C172.041840,59.994770 172.050003,60.052837 171.835327,60.190033 
	C171.385223,60.535076 171.188354,60.774616 171.030045,61.045853 
	C171.030045,61.045853 170.914581,61.511330 170.573334,61.971611 
	C169.572693,65.135292 168.913284,67.838692 168.154053,70.951378 
	C167.028580,67.927994 166.105789,65.449081 165.182999,62.970177 
z"/>
<path fill="#164A8B" opacity="1.000000" stroke="none" 
	d="
M71.107361,66.305748 
	C71.308853,66.975365 71.868652,68.653099 71.433823,68.971207 
	C69.907707,70.087616 68.039261,70.736061 66.659683,72.593742 
	C69.254860,71.489166 72.466927,70.992638 74.297981,69.134918 
	C76.924454,66.470177 74.946915,63.323265 73.121033,60.297829 
	C77.253059,60.701340 77.212540,64.250092 77.786682,67.664848 
	C77.689995,68.000351 77.754753,67.966080 77.754753,67.966080 
	C74.271263,73.718933 69.560341,75.603188 63.168053,73.800385 
	C60.272423,72.983734 59.872055,72.005302 60.676533,67.442657 
	C64.138206,67.751663 67.979370,71.691956 71.107361,66.305748 
z"/>
<path fill="#1D5699" opacity="1.000000" stroke="none" 
	d="
M134.218475,73.326340 
	C139.430038,72.242378 139.748901,71.511551 138.232819,62.345051 
	C138.057434,64.985748 137.882050,67.626450 137.733093,69.869339 
	C135.227448,68.630768 132.925980,67.493126 131.253799,66.666550 
	C132.249710,64.958145 133.302597,63.151966 134.127228,61.226219 
	C133.898941,61.106644 133.929489,61.087475 133.965759,60.759106 
	C133.680618,58.688969 133.359222,56.947205 133.037827,55.205437 
	C137.836273,54.980343 139.859268,57.575603 139.919144,62.067005 
	C139.969025,65.808754 139.929367,69.551689 139.929367,73.607224 
	C137.677704,73.607224 136.085052,73.607224 134.218475,73.326340 
z"/>
<path fill="#1056A6" opacity="1.000000" stroke="none" 
	d="
M181.697067,58.994537 
	C181.755920,59.160923 181.814758,59.327305 181.920654,60.194267 
	C181.498215,64.233322 183.199814,68.232201 179.512100,71.147629 
	C178.617859,67.591461 177.914352,64.793755 177.210846,61.996048 
	C176.666122,61.364704 176.121414,60.733356 175.134857,59.696598 
	C174.111420,58.172935 173.529831,57.054684 172.948242,55.936432 
	C175.176010,56.100193 177.403778,56.263947 179.938126,56.931641 
	C180.436600,57.666981 180.662521,57.858227 180.922424,58.009327 
	C180.922424,58.009327 180.991669,58.013405 181.073242,58.223690 
	C181.298752,58.656437 181.479492,58.843292 181.697067,58.994537 
z"/>
<path fill="#134C93" opacity="1.000000" stroke="none" 
	d="
M101.096405,66.328552 
	C102.722595,66.295624 104.535545,66.547668 106.600708,67.223541 
	C107.481445,68.752052 108.109978,69.856735 108.738510,70.961426 
	C106.800148,76.124268 102.446037,73.589157 99.157204,73.598068 
	C97.983803,73.601242 96.803581,71.087166 94.837296,68.806923 
	C99.053665,68.806923 101.571480,68.806923 104.089294,68.806923 
	C104.178673,68.538803 104.268051,68.270683 104.357437,68.002571 
	C103.332680,67.539558 102.307930,67.076553 101.096405,66.328552 
z"/>
<path fill="#1C467D" opacity="1.000000" stroke="none" 
	d="
M208.051300,62.022446 
	C208.018585,64.990463 208.247696,67.996849 207.821213,70.907158 
	C207.656174,72.033463 206.006088,72.942162 205.032547,73.949982 
	C204.037537,72.959213 202.276566,72.035210 202.183350,70.965820 
	C201.826523,66.872597 202.152054,62.725052 201.938675,58.612526 
	C201.767654,55.316391 203.370438,54.594662 206.426910,55.257187 
	C206.469696,55.665115 206.239548,55.845005 205.660278,56.071701 
	C202.536179,59.067348 202.525818,66.422035 205.066681,70.127380 
	C206.007629,67.572166 207.029465,64.797310 208.051300,62.022446 
z"/>
<path fill="#1056A6" opacity="1.000000" stroke="none" 
	d="
M208.047363,61.997932 
	C207.029465,64.797310 206.007629,67.572166 205.066681,70.127380 
	C202.525818,66.422035 202.536179,59.067348 205.855164,56.174622 
	C206.944366,56.128002 207.495575,56.032986 208.046799,55.937965 
	C208.046799,55.937965 208.527863,56.041557 208.761841,56.511108 
	C208.992371,58.311409 208.988907,59.642162 208.985443,60.972916 
	C208.985443,60.972916 209.002197,61.006798 208.798553,61.140648 
	C208.360001,61.483822 208.160599,61.722786 207.996735,61.991394 
	C207.996735,61.991394 208.043427,61.973419 208.047363,61.997932 
z"/>
<path fill="#134A8F" opacity="1.000000" stroke="none" 
	d="
M165.107346,63.424198 
	C166.105789,65.449081 167.028580,67.927994 168.154053,70.951378 
	C168.913284,67.838692 169.572693,65.135292 170.510773,62.203102 
	C170.846039,64.969322 171.173157,67.996887 170.818573,70.942406 
	C170.687088,72.034805 168.956085,72.934669 167.954529,73.922333 
	C166.988525,72.906403 165.418793,72.011604 165.185440,70.848656 
	C164.735275,68.605225 165.039948,66.210327 165.107346,63.424198 
z"/>
<path fill="#1060B3" opacity="1.000000" stroke="none" 
	d="
M93.080963,58.983311 
	C93.080963,61.731960 93.080963,64.480606 93.080963,67.229256 
	C92.792053,67.245186 92.503143,67.261116 92.214226,67.277039 
	C91.022850,64.620514 89.831474,61.963989 88.046967,58.999477 
	C86.024902,58.426376 84.595985,58.161255 83.167061,57.896133 
	C83.178406,57.460827 83.189758,57.025520 83.201103,56.590214 
	C85.813202,56.394905 88.425301,56.199600 91.037399,56.004295 
	C91.037399,56.004299 91.510048,56.128155 91.868561,56.372753 
	C92.424240,56.816925 92.658218,56.953350 92.929001,57.026630 
	C92.929001,57.026630 92.983818,57.002472 92.972076,57.352531 
	C93.000534,58.129501 93.040749,58.556404 93.080963,58.983311 
z"/>
<path fill="#125095" opacity="1.000000" stroke="none" 
	d="
M132.625320,55.135815 
	C133.359222,56.947205 133.680618,58.688969 133.955322,60.763901 
	C131.326874,60.768295 128.745117,60.439533 125.807259,60.065422 
	C124.376152,56.183945 125.408203,55.228111 132.625320,55.135815 
z"/>
<path fill="#134A8F" opacity="1.000000" stroke="none" 
	d="
M177.142593,62.451942 
	C177.914352,64.793755 178.617859,67.591461 179.512100,71.147629 
	C183.199814,68.232201 181.498215,64.233322 181.981293,60.451950 
	C182.435013,64.316505 182.875137,68.623955 183.318619,72.964218 
	C178.781876,74.642563 176.670212,73.910072 176.986481,69.325714 
	C177.133514,67.194550 177.052170,65.047623 177.142593,62.451942 
z"/>
<path fill="#1A54A0" opacity="1.000000" stroke="none" 
	d="
M83.597885,62.982491 
	C83.137283,66.175186 82.309128,69.391129 81.259628,72.817284 
	C80.083633,71.530495 79.129005,70.033501 77.964569,68.251297 
	C77.754753,67.966080 77.689995,68.000351 77.666718,68.032883 
	C79.505737,66.378853 81.368042,64.692291 83.597885,62.982491 
z"/>
<path fill="#1C5592" opacity="1.000000" stroke="none" 
	d="
M90.776443,55.692032 
	C88.425301,56.199600 85.813202,56.394905 83.201103,56.590214 
	C83.189758,57.025520 83.178406,57.460827 83.167061,57.896133 
	C84.595985,58.161255 86.024902,58.426376 87.727501,58.841522 
	C88.001175,58.991547 88.007996,59.417885 88.011665,59.631050 
	C85.610886,60.129440 83.206436,60.414665 80.809555,60.698990 
	C79.970039,55.490791 82.056458,54.370823 90.776443,55.692032 
z"/>
<path fill="#174D94" opacity="1.000000" stroke="none" 
	d="
M209.402740,60.972313 
	C208.988907,59.642162 208.992371,58.311409 208.997589,56.581585 
	C210.307877,55.730629 211.616425,55.278744 213.209549,54.728588 
	C214.432983,58.594879 214.812912,61.332321 209.402740,60.972313 
z"/>
<path fill="#144996" opacity="1.000000" stroke="none" 
	d="
M50.004036,56.026218 
	C50.748344,54.786968 51.492653,53.547718 52.500759,52.153179 
	C52.377472,55.493660 51.990395,58.989429 51.319885,62.753994 
	C51.036453,63.022789 50.882839,62.939678 50.715393,62.538506 
	C50.366638,60.100296 50.185333,58.063259 50.004036,56.026218 
z"/>
<path fill="#18549E" opacity="1.000000" stroke="none" 
	d="
M108.808121,70.725159 
	C108.109978,69.856735 107.481445,68.752052 106.876579,67.373306 
	C106.928726,66.078659 106.957207,65.058075 106.984406,63.656418 
	C108.169930,65.066177 109.356728,66.857002 110.097153,68.981079 
	C109.408646,69.522552 109.193047,69.755356 109.003983,70.012726 
	C109.003983,70.012726 108.877731,70.488892 108.808121,70.725159 
z"/>
<path fill="#125095" opacity="1.000000" stroke="none" 
	d="
M115.880112,72.996330 
	C116.525612,72.255981 117.414627,71.778229 118.656769,71.147728 
	C119.009895,70.994972 119.039574,71.006439 119.236664,71.089127 
	C119.944336,70.795403 120.454918,70.418999 121.072250,69.842651 
	C121.179001,69.642715 121.371017,69.232086 121.371017,69.232086 
	C121.635277,69.115059 121.910439,69.077141 122.400787,69.167557 
	C122.605095,69.216782 122.832649,69.638741 122.946136,69.849869 
	C122.959007,75.923225 119.206039,73.863914 115.880112,72.996330 
z"/>
<path fill="#165CA8" opacity="1.000000" stroke="none" 
	d="
M33.096390,18.904419 
	C35.290348,20.059374 37.484303,21.214329 39.860001,22.655457 
	C40.041744,22.941626 39.884338,23.137022 39.435188,23.163887 
	C37.720772,23.096079 36.455502,23.001406 35.041798,22.625324 
	C34.176311,21.294540 33.459263,20.245163 32.831882,19.124310 
	C32.921551,19.052835 33.096390,18.904419 33.096390,18.904419 
z"/>
<path fill="#134A8F" opacity="1.000000" stroke="none" 
	d="
M165.128937,52.457466 
	C165.607513,54.826897 166.011642,57.638622 166.396255,60.453011 
	C166.397247,60.460171 166.107681,60.542984 165.962326,60.524319 
	C165.809402,60.504688 165.666702,60.405445 165.363251,60.218956 
	C165.156021,57.697884 165.105072,55.298843 165.128937,52.457466 
z"/>
<path fill="#144996" opacity="1.000000" stroke="none" 
	d="
M52.122906,49.219864 
	C52.401237,47.453281 52.850872,45.918774 53.577103,44.181915 
	C53.783226,46.142555 53.712753,48.305546 53.346878,50.733067 
	C52.799053,50.482380 52.546631,49.967155 52.122906,49.219864 
z"/>
<path fill="#145197" opacity="1.000000" stroke="none" 
	d="
M152.459198,53.825432 
	C153.918243,53.590046 155.800537,53.422451 157.850586,53.492111 
	C156.306366,53.783981 154.594406,53.838596 152.459198,53.825432 
z"/>
<path fill="#134A8F" opacity="1.000000" stroke="none" 
	d="
M172.720123,56.014626 
	C173.529831,57.054684 174.111420,58.172935 174.846451,59.566029 
	C174.261124,59.895355 173.522385,59.949844 172.412750,59.999550 
	C172.024216,59.215462 172.006592,58.436157 171.980652,57.266853 
	C172.025696,56.536057 172.198929,56.274712 172.720123,56.014626 
z"/>
<path fill="#145197" opacity="1.000000" stroke="none" 
	d="
M146.640015,50.999702 
	C146.198975,51.908165 145.416977,52.860046 144.326202,53.905510 
	C144.777969,53.013763 145.538513,52.028446 146.640015,50.999702 
z"/>
<path fill="#145197" opacity="1.000000" stroke="none" 
	d="
M147.817535,59.631081 
	C147.678879,59.074066 147.623428,58.149925 147.815308,57.116375 
	C148.008667,57.759296 147.954681,58.511623 147.817535,59.631081 
z"/>
<path fill="#145197" opacity="1.000000" stroke="none" 
	d="
M141.101593,60.354870 
	C141.294601,60.869869 141.418579,61.757351 141.356873,62.815727 
	C141.124969,62.233532 141.078766,61.480442 141.101593,60.354870 
z"/>
<path fill="#145197" opacity="1.000000" stroke="none" 
	d="
M142.176300,56.311867 
	C142.304459,56.594940 142.350143,57.192974 142.196838,57.857498 
	C142.029831,57.491604 142.061829,57.059216 142.176300,56.311867 
z"/>
<path fill="#134C93" opacity="1.000000" stroke="none" 
	d="
M105.804764,62.711403 
	C105.098083,62.855824 104.178444,62.743713 103.120407,62.443176 
	C103.851944,62.321453 104.721878,62.388161 105.804764,62.711403 
z"/>
<path fill="#174D94" opacity="1.000000" stroke="none" 
	d="
M207.948792,55.723099 
	C207.495575,56.032986 206.944366,56.128002 206.198257,56.120102 
	C206.239548,55.845005 206.469696,55.665115 206.855927,55.329296 
	C207.367935,55.105999 207.645508,55.215050 207.948792,55.723099 
z"/>
<path fill="#125095" opacity="1.000000" stroke="none" 
	d="
M118.996262,70.985931 
	C118.995262,70.515251 119.007889,70.053619 119.030869,69.245560 
	C119.628555,68.960037 120.215897,69.020927 121.087128,69.156952 
	C121.371017,69.232086 121.179001,69.642715 120.830116,69.958694 
	C120.000679,70.518593 119.520126,70.762520 119.039574,71.006439 
	C119.039574,71.006439 119.009895,70.994972 118.996262,70.985931 
z"/>
<path fill="#2273AF" opacity="1.000000" stroke="none" 
	d="
M30.002773,14.978389 
	C30.175867,14.982063 30.348963,14.985739 30.781515,15.006731 
	C31.038164,15.460433 31.035355,15.896816 30.995743,16.615858 
	C30.958939,16.898516 30.738127,16.854786 30.612728,16.641727 
	C30.325809,15.945244 30.164291,15.461817 30.002773,14.978389 
z"/>
<path fill="#1C5592" opacity="1.000000" stroke="none" 
	d="
M93.342804,58.975777 
	C93.040749,58.556404 93.000534,58.129501 92.962280,57.380844 
	C93.306519,57.492939 93.648804,57.926785 94.059616,58.654274 
	C93.953644,58.954693 93.779144,58.961468 93.342804,58.975777 
z"/>
<path fill="#134C93" opacity="1.000000" stroke="none" 
	d="
M109.236496,69.921204 
	C109.193047,69.755356 109.408646,69.522552 109.839706,69.169785 
	C109.947174,69.366486 109.760635,69.634628 109.236496,69.921204 
z"/>
<path fill="#165CA8" opacity="1.000000" stroke="none" 
	d="
M31.064941,16.936348 
	C31.507479,17.008425 31.764471,17.169567 31.954035,17.745192 
	C31.966148,18.032780 31.822287,18.169674 31.633341,17.959555 
	C31.208973,17.451220 30.973549,17.153002 30.738127,16.854786 
	C30.738127,16.854786 30.958939,16.898516 31.064941,16.936348 
z"/>
<path fill="#125095" opacity="1.000000" stroke="none" 
	d="
M115.050339,72.079865 
	C115.280396,71.898003 115.410973,72.006668 115.354614,72.350098 
	C115.298454,72.443573 115.081635,72.229103 115.050339,72.079865 
z"/>
<path fill="#2273AF" opacity="1.000000" stroke="none" 
	d="
M31.261076,14.975258 
	C31.145845,14.746264 31.344257,14.486547 31.814419,14.144695 
	C31.854111,14.309510 31.683628,14.603502 31.261076,14.975258 
z"/>
<path fill="#145197" opacity="1.000000" stroke="none" 
	d="
M141.182495,64.250862 
	C141.390915,64.209068 141.581955,64.432838 141.863968,64.864571 
	C141.619156,65.001244 141.355881,64.815865 141.182495,64.250862 
z"/>
<path fill="#165CA8" opacity="1.000000" stroke="none" 
	d="
M32.038208,17.964466 
	C32.455189,17.965899 32.725132,18.147263 33.008244,18.672329 
	C33.096390,18.904419 32.921551,19.052835 32.685497,18.947319 
	C32.244576,18.613852 32.035522,18.389811 31.822287,18.169674 
	C31.822287,18.169674 31.966148,18.032780 32.038208,17.964466 
z"/>
<path fill="#174D94" opacity="1.000000" stroke="none" 
	d="
M208.229309,61.904182 
	C208.160599,61.722786 208.360001,61.483822 208.781219,61.132935 
	C208.925491,61.344055 208.756943,61.619255 208.229309,61.904182 
z"/>
<path fill="#134A8F" opacity="1.000000" stroke="none" 
	d="
M171.262390,60.958786 
	C171.188354,60.774616 171.385223,60.535076 171.806168,60.187073 
	C171.959915,60.402512 171.794281,60.677444 171.262390,60.958786 
z"/>
<path fill="#164A8B" opacity="1.000000" stroke="none" 
	d="
M72.941177,59.757965 
	C72.764709,59.866268 72.524353,59.710133 72.159973,59.357311 
	C72.364441,59.122124 72.644882,59.233089 72.941177,59.757965 
z"/>
<path fill="#134A8F" opacity="1.000000" stroke="none" 
	d="
M181.690445,58.775841 
	C181.479492,58.843292 181.298752,58.656437 181.069748,58.258194 
	C181.301605,58.117126 181.534653,58.275372 181.690445,58.775841 
z"/>
<path fill="#134A8F" opacity="1.000000" stroke="none" 
	d="
M180.858124,57.777359 
	C180.662521,57.858227 180.436600,57.666981 180.118622,57.251869 
	C180.341568,57.089748 180.608658,57.248825 180.858124,57.777359 
z"/>
<path fill="#1C5592" opacity="1.000000" stroke="none" 
	d="
M92.856064,56.808319 
	C92.658218,56.953350 92.424240,56.816925 92.097931,56.456856 
	C92.312630,56.193676 92.584076,56.291561 92.856064,56.808319 
z"/>
<path fill="#156BBA" opacity="1.000000" stroke="none" 
	d="
M35.190235,22.906733 
	C36.455502,23.001406 37.720772,23.096079 39.356194,23.261349 
	C40.636829,24.124041 41.547314,24.916138 42.552094,26.159752 
	C40.949364,27.277388 39.303516,28.189039 37.544083,28.555788 
	C34.398434,29.211487 31.184309,29.538687 27.617386,29.998198 
	C26.219116,29.984711 25.202269,29.976244 24.185421,29.967777 
	C21.794527,27.187977 19.403635,24.408178 16.983105,20.944540 
	C17.019472,19.191225 17.085478,18.121748 17.113131,17.673691 
	C18.817085,18.494549 20.394869,19.254627 22.180067,20.291294 
	C26.327782,23.139044 30.513557,24.366472 35.190235,22.906733 
z"/>
<path fill="#1363B4" opacity="1.000000" stroke="none" 
	d="
M27.998810,30.003216 
	C31.184309,29.538687 34.398434,29.211487 37.544083,28.555788 
	C39.303516,28.189039 40.949364,27.277388 42.823410,26.306034 
	C44.887100,27.751293 47.194103,29.243380 48.492538,31.355495 
	C49.197990,32.503025 48.188232,34.704994 47.876591,36.983681 
	C44.171970,35.421402 41.647301,31.563309 37.938713,35.665619 
	C34.923912,34.821865 32.460434,33.917240 29.996952,33.012619 
	C29.824005,32.975800 29.651058,32.938976 29.087317,32.682129 
	C28.503410,32.276440 28.283688,32.130962 28.037355,32.025677 
	C28.037355,32.025677 27.976740,32.031033 27.994219,31.673515 
	C28.007402,30.878403 28.003107,30.440809 27.998810,30.003216 
z"/>
<path fill="#1876C0" opacity="1.000000" stroke="none" 
	d="
M21.972652,20.014704 
	C20.394869,19.254627 18.817085,18.494549 17.113131,17.673691 
	C17.085478,18.121748 17.019472,19.191225 16.944485,20.581930 
	C14.497725,15.206113 17.503000,10.774100 20.648340,6.157154 
	C22.064173,7.920117 23.161001,9.826425 24.582619,12.297220 
	C24.464096,12.799473 24.143656,14.157386 23.857265,16.101240 
	C23.251760,17.796356 22.612206,18.905529 21.972652,20.014704 
z"/>
<path fill="#15519C" opacity="1.000000" stroke="none" 
	d="
M12.108589,47.082848 
	C16.690660,43.881828 21.279926,40.589359 26.161396,37.810127 
	C27.086372,37.283501 29.170719,38.793201 30.809624,39.740654 
	C30.899124,40.117992 30.756517,40.279964 30.428444,40.186001 
	C26.106659,38.527954 23.745461,41.481110 20.850594,43.254864 
	C18.204035,44.876484 15.251969,45.999504 12.434537,47.342251 
	C12.434537,47.342251 12.217145,47.169434 12.108589,47.082848 
z"/>
<path fill="#1454A3" opacity="1.000000" stroke="none" 
	d="
M30.147707,33.323597 
	C32.460434,33.917240 34.923912,34.821865 37.706268,35.886253 
	C39.259842,37.167366 40.494537,38.288715 41.847832,39.700157 
	C38.077106,37.871693 34.187782,35.753132 30.147707,33.323597 
z"/>
<path fill="#15519C" opacity="1.000000" stroke="none" 
	d="
M35.865807,42.659332 
	C35.814304,43.203205 35.600872,43.436256 34.929092,43.651012 
	C33.241573,42.523285 31.999046,41.401627 30.756517,40.279964 
	C30.756517,40.279964 30.899124,40.117992 30.970495,40.037067 
	C32.600319,40.757675 34.158772,41.559212 35.865807,42.659332 
z"/>
<path fill="#1454A3" opacity="1.000000" stroke="none" 
	d="
M27.617386,29.998196 
	C28.003107,30.440809 28.007402,30.878403 27.999474,31.643547 
	C26.786650,31.508434 25.586052,31.045771 24.285437,30.275442 
	C25.202269,29.976244 26.219116,29.984711 27.617386,29.998196 
z"/>
<path fill="#1454A3" opacity="1.000000" stroke="none" 
	d="
M28.100796,32.247280 
	C28.283688,32.130962 28.503410,32.276440 28.833130,32.606377 
	C28.969740,32.750645 28.509005,32.775387 28.509005,32.775387 
	C28.509005,32.775387 28.164234,32.468884 28.100796,32.247280 
z"/>
<path fill="#1454A3" opacity="1.000000" stroke="none" 
	d="
M42.087849,40.262486 
	C42.248055,40.220535 42.466507,40.425411 42.806210,40.824951 
	C42.609917,40.945713 42.349461,40.775608 42.087849,40.262486 
z"/>
<path fill="#1172C2" opacity="1.000000" stroke="none" 
	d="
M22.180067,20.291294 
	C22.612206,18.905529 23.251760,17.796356 23.941113,16.368242 
	C25.784584,15.655703 27.578260,15.262103 29.687355,14.923446 
	C30.164291,15.461817 30.325809,15.945244 30.612728,16.641727 
	C30.973549,17.153002 31.208973,17.451220 31.633341,17.959555 
	C32.035522,18.389811 32.244576,18.613852 32.595829,19.018793 
	C33.459263,20.245163 34.176311,21.294540 35.041798,22.625324 
	C30.513557,24.366472 26.327782,23.139044 22.180067,20.291294 
z"/>
<path fill="#000000" opacity="1.000000" stroke="none" 
	d="
M36.942619,58.946583 
	C34.503429,66.902641 34.503738,66.943031 25.365784,67.013298 
	C22.330683,67.036629 19.293535,66.793907 16.134920,66.342300 
	C16.012516,66.011787 16.019772,65.991226 16.019772,65.991226 
	C17.857622,62.674580 15.921163,57.670887 20.810047,55.331902 
	C20.975342,55.019688 21.024126,55.028633 21.311066,54.906425 
	C22.383930,54.197449 23.169855,53.610683 23.955782,53.023922 
	C24.236298,52.835678 24.516811,52.647430 25.192623,52.183044 
	C26.069672,51.614761 26.551420,51.322617 27.268742,51.026451 
	C27.504311,51.022434 27.973860,51.059616 28.168945,51.332596 
	C31.226030,53.745937 34.088032,55.886303 36.950035,58.026672 
	C36.950035,58.026672 36.965992,58.033508 36.975372,58.261837 
	C36.984753,58.490166 36.942619,58.946583 36.942619,58.946583 
z"/>
<path fill="#1359AE" opacity="1.000000" stroke="none" 
	d="
M30.428444,40.186001 
	C31.999046,41.401627 33.241573,42.523285 34.757095,43.814247 
	C34.738670,46.446114 34.447258,48.908684 33.758942,51.633720 
	C32.228161,51.269062 31.094288,50.641937 30.030273,49.817657 
	C28.732826,49.740475 27.365517,49.860443 25.748871,49.987904 
	C25.499533,49.995396 25.001322,50.021576 25.001322,50.021576 
	C24.000664,49.076782 23.000006,48.131989 21.535408,46.749161 
	C20.891777,48.679947 20.508282,49.830368 19.869457,51.746738 
	C17.341402,50.384594 14.999167,49.122574 12.545735,47.601402 
	C15.251969,45.999504 18.204035,44.876484 20.850594,43.254864 
	C23.745461,41.481110 26.106659,38.527954 30.428444,40.186001 
z"/>
<path fill="#144996" opacity="1.000000" stroke="none" 
	d="
M23.644333,53.068703 
	C23.169855,53.610683 22.383930,54.197449 21.311661,54.881992 
	C21.794508,54.357677 22.563698,53.735580 23.644333,53.068703 
z"/>
<path fill="#144996" opacity="1.000000" stroke="none" 
	d="
M25.000393,50.349186 
	C25.001322,50.021576 25.499533,49.995396 25.913830,50.170456 
	C26.555836,50.581352 26.790850,50.809669 27.033169,51.030472 
	C26.551420,51.322617 26.069672,51.614761 25.296438,51.947411 
	C25.003122,51.550873 25.001293,51.113834 25.000393,50.349186 
z"/>
<path fill="#164F9D" opacity="1.000000" stroke="none" 
	d="
M37.089935,59.292969 
	C36.942619,58.946583 36.984753,58.490166 36.983768,58.261139 
	C39.829056,58.394085 42.675327,58.756058 46.220104,59.206863 
	C46.722603,58.717175 48.032742,57.440434 49.673458,56.094955 
	C50.185333,58.063259 50.366638,60.100296 50.638607,62.496910 
	C47.284355,63.476814 43.827778,64.546013 40.401299,64.456963 
	C39.305622,64.428482 38.289677,61.332066 37.089935,59.292969 
z"/>
<path fill="#15519C" opacity="1.000000" stroke="none" 
	d="
M16.002430,66.015884 
	C15.992343,66.019974 15.973166,65.955795 15.996469,65.973511 
	C16.019772,65.991226 16.012516,66.011787 16.002430,66.015884 
z"/>
<path fill="#144996" opacity="1.000000" stroke="none" 
	d="
M29.960411,50.014816 
	C31.094288,50.641937 32.228161,51.269062 33.679146,51.985638 
	C34.954639,53.831741 35.913033,55.588394 36.910728,57.685860 
	C34.088032,55.886303 31.226030,53.745937 28.395576,51.163124 
	C28.938219,50.485390 29.449316,50.250103 29.960411,50.014816 
z"/>
<path fill="#15579F" opacity="1.000000" stroke="none" 
	d="
M119.236664,71.089127 
	C119.520126,70.762520 120.000679,70.518593 120.723366,70.158630 
	C120.454918,70.418999 119.944336,70.795403 119.236664,71.089127 
z"/>
<path fill="#164F9D" opacity="1.000000" stroke="none" 
	d="
M30.030273,49.817661 
	C29.449316,50.250103 28.938219,50.485390 28.200491,50.890144 
	C27.973860,51.059616 27.504311,51.022434 27.268740,51.026451 
	C26.790850,50.809669 26.555836,50.581352 26.163166,50.162964 
	C27.365517,49.860443 28.732826,49.740475 30.030273,49.817661 
z"/>
</svg>